<svg xmlns="http://www.w3.org/2000/svg" width="99" height="29" viewBox="0 0 99 29"><g><g><g opacity="-1"><path fill="#020202" d="M78.629 16.851c.54-.584 1.008-1.227 1.661-1.694.54-.38 1.093-.701 1.775-.701.951 0 1.505.38 1.874 1.285.213.511.256 1.052.355 1.636.256-.35.483-.686.71-.993.383-.526.824-.993 1.363-1.358 1.846-1.3 4.075-.336 4.487 1.928.256 1.402-.156 2.702-.568 4.002-.114.35-.284.7-.34 1.08-.03.249-.1.497.113.672.199.176.44.015.625-.073 1.206-.555 2.243-1.358 3.038-2.439.213-.292.426-.584.625-.89.1-.147.199-.278.397-.205.185.058.256.219.256.394 0 .16-.014.336-.057.497-.937 2.819-2.64 4.907-5.466 5.798-1.917.614-3.593-1.066-3.266-3.096.156-.964.54-1.811.98-2.659.397-.759.852-1.49 1.05-2.337.1-.423.043-.803-.27-1.08-.326-.292-.68-.132-.993.043-.895.512-1.534 1.33-2.144 2.147-1.307 1.783-1.818 3.857-2.06 6.033-.013.175-.056.365-.07.54-.014.38-.242.482-.568.482h-1.108c-1.079 0-1.59-.452-1.803-1.563-.142-.774.057-1.475.313-2.161.44-1.198 1.079-2.279 1.675-3.389.241-.438.412-.905.54-1.387.07-.263.17-.585-.086-.804-.27-.219-.582-.248-.923-.117a2.793 2.793 0 0 0-.852.555c-1.831 1.65-3.066 3.637-3.436 6.164-.099.73-.142 1.475-.241 2.22-.043.365-.227.497-.554.497-.582 0-1.15-.03-1.732.014-.483.03-.81-.19-.994-.598-.156-.351-.284-.278-.525-.103-.597.439-1.221.79-1.988.79-1.363 0-2.357-.819-2.655-2.192-.085-.409-.085-.818-.085-1.314a43.76 43.76 0 0 1-.824 1.051c-.582.73-1.25 1.373-2.059 1.855-1.576.935-2.982.643-4.09-.847-.425.365-.851.73-1.348 1.008-1.817 1.052-3.692.234-4.189-1.855-.298-1.227-.07-2.41.384-3.55.383-.978.965-1.825 1.704-2.643-.313-.03-.512.117-.71.219-.71.307-1.42.774-2.187.789-.71.014-.81.409-1.008.935-.497 1.358-1.05 2.702-2.016 3.797-1.023 1.14-2.158 2.133-3.678 2.483-2.357.555-3.45-1.197-3.28-3.038.1-1.066.597-2.015 1.051-2.965.34-.686.781-1.314.98-2.074.1-.38.057-.73-.242-.993-.298-.263-.639-.16-.95.014-.938.54-1.605 1.373-2.259 2.22-1.093 1.432-1.59 3.112-1.817 4.894-.071.525-.114 1.051-.17 1.577-.029.321-.213.453-.497.453h-2.002c-.412 0-.654-.292-.795-.628-.142-.321-.256-.234-.47-.088-.638.468-1.32.833-2.157.818-1.264-.044-2.244-.876-2.513-2.19-.086-.41-.086-.819-.086-1.345l-.482.643c-.71.95-1.505 1.797-2.542 2.366-2.13 1.183-4.416-.233-4.43-2.731 0-1.563.71-2.834 1.619-3.988 1.647-2.088 3.72-3.534 6.29-4.118 1.732-.395 3.407-.22 4.813 1.051.128.117.241.22.34.35.71.906.626 1.271-.028 1.958-.397.424-.809.847-1.306 1.154-.383.234-.44.204-.454-.249-.014-.481.028-.963-.085-1.445-.313-1.403-1.051-1.885-2.386-1.461-1.235.394-2.144 1.256-2.925 2.264-.71.92-1.292 1.913-1.576 3.067-.1.38-.128.774.213 1.037.327.263.696.19 1.037 0 .837-.467 1.405-1.241 2.016-1.957.554-.657.838-1.446 1.264-2.176.468-.818.951-.964 1.803-.585.227.103.284.19.184.439a6.72 6.72 0 0 0-.454 2.76c.043.877.454 1.475 1.136 1.621.61.147 1.179-.16 1.42-.744 1.562-3.783 3.209-7.523 5.097-11.145.866-1.68 2.329-2.41 4.132-2.483h.17c.384.073.796.131.952.555.156.424-.1.745-.37 1.052-1.831 2.06-3.364 4.323-4.515 6.865-.042.087-.056.175-.099.248-.028.073-.156.131-.085.19.1.087.128-.059.17-.117.483-.657.98-1.285 1.605-1.811 1.69-1.432 3.777-.628 4.203 1.68.27 1.49-.171 2.833-.682 4.191-.156.41-.37.79-.398 1.242-.028.555.114.716.597.497 1.93-.906 3.45-2.235 4.174-4.368.071-.219-.028-.321-.113-.482-.91-1.49-.781-3.198.497-4.192.54-.423 1.15-.613 1.817-.336.383.161.54.439.426.877-.128.511-.44.92-.71 1.344-.34.555-.767 1.066-.909 1.767.298.03.526-.117.753-.248.838-.482 1.661-.979 2.499-1.446.653-.366 1.335-.73 2.101-.745 1.065-.03 1.704.818 1.449 1.884-.213.847-.654 1.577-1.136 2.293-.412.599-.838 1.169-1.193 1.811-.227.424-.398.862-.057 1.3.355.468.866.497 1.363.424.213-.03.497-.015.568-.38.313-1.724 1.25-3.097 2.414-4.294 1.533-1.578 3.337-2.702 5.467-3.155 1.718-.365 3.379-.22 4.784 1.037.128.117.27.248.384.38.639.76.639 1.183-.029 1.928a7.287 7.287 0 0 1-1.263 1.139c-.128.088-.27.248-.426.146-.156-.088-.071-.278-.085-.424-.029-.467.014-.934-.086-1.402-.298-1.387-1.064-1.87-2.4-1.431-1.249.409-2.157 1.285-2.938 2.308-.682.89-1.25 1.869-1.534 2.98-.1.408-.142.817.213 1.08.341.263.739.16 1.08-.044.95-.584 1.59-1.475 2.271-2.337.412-.526.596-1.168.937-1.738.483-.818.937-.978 1.803-.613.242.102.299.204.2.467a6.485 6.485 0 0 0-.44 2.76c.042.892.482 1.49 1.206 1.622.554.117 1.122-.205 1.335-.745a22.216 22.216 0 0 1 3.862-6.222c.17-.205.369-.395.568-.57.454-.394 1.178-.453 1.69-.16.212.116.141.233.042.394-.312.511-.554 1.066-.781 1.621 0 .044-.014.088 0 .102.085 0 .114-.029.128-.073"/></g><g opacity="-1"><path fill="#010101" d="M17.851 13.35c.46.113.906.169 1.294.351.445.197.776.099 1.164-.098 1.94-1.025 3.78-2.19 5.26-3.806.776-.843 1.423-1.756 1.58-2.936.159-1.306-.301-2.317-1.45-3.005-.935-.562-1.998-.787-3.062-.857-2.443-.168-4.843-.028-7.157.913-2.975 1.208-5.375 3.16-7.401 5.576-1.826 2.149-3.234 4.55-4.384 7.107-.129.267-.215.379-.546.28-1.494-.49-2.457-1.502-2.86-2.949-.675-2.472-.13-4.79 1.236-6.924 1.653-2.57 4.082-4.2 6.87-5.393C11.685.19 15.12-.203 18.67.092c2.228.182 4.398.562 6.453 1.418 1.136.478 2.156 1.11 3.033 1.98 1.437 1.433 1.897 3.203 1.84 5.127-.087 2.64-1.524 4.537-3.637 6.011a13.274 13.274 0 0 1-2.903 1.531c-.345.14-.33.225-.13.492 1.754 2.416 1.74 6.306-.215 8.553-1.696 1.939-3.78 3.413-6.481 3.736-1.94.24-3.737-.238-5.275-1.474-1.006-.8-1.293-1.896-1.207-3.104.015-.267.115-.618.518-.492 1.192.38 2.342.113 3.434-.323 2.558-.997 4.729-2.528 6.338-4.761.388-.534.69-1.11.676-1.826-1.61.45-3.234.66-4.872.772-.187.015-.259.085-.302.24-.302.814-.647 1.628-.906 2.457-.1.31-.244.295-.445.197-.675-.351-1.207-.857-1.538-1.531-.187-.365-.043-.787.015-1.166.043-.28-.044-.323-.273-.351a5.423 5.423 0 0 1-1.74-.534c-.287-.14-.546-.309-.747-.548-.69-.814-.89-1.882.36-2.626.819-.492 1.724-.702 2.673-.772.747-.057.747-.043.934-.73.532-1.91 1.279-3.737 2.012-5.577.144-.35.417-.45.718-.52a12.74 12.74 0 0 1 3.794-.238c.345.028.69.028 1.02.154.188.07.375.155.145.394-1.409 1.418-2.271 3.16-3.177 4.887-.33.576-.603 1.222-.934 1.882m-4.21 1.278c-.604.112-1.179.237-1.668.586-.215.153-.316.348 0 .501.417.21.891.195 1.308.112.316-.056.144-.474.259-.71.072-.14.057-.307.1-.489m3.536.356c.341-.138.64-.261.938-.371-.37-.042-.839-.303-.938.37"/></g><g opacity="-1"><path fill="#020202" d="M95.688 26.986c-1.064-.069-1.921-.507-2.571-1.357-.166-.219-.166-.356.069-.548a8.024 8.024 0 0 0 2.613-3.891c.069-.233.207-.192.359-.178 1.48.123 2.723 1.342 2.834 2.768.11 1.438-.926 2.781-2.405 3.124-.29.068-.595.123-.899.082"/></g><g opacity="-1"><path fill="#020202" d="M93 20c-.535.757-1.127 1.457-2 2 .38-1.071 1.056-1.671 2-2"/></g><g opacity="-1"><path fill="#fefefe" d="M43.093 17.97c-.043.056-.072.195-.172.112-.071-.056.057-.126.086-.182a.377.377 0 0 0 .086.07"/></g><g opacity="-1"><path fill="#fefefe" d="M79.048 18.001c-.015.042-.043.07-.086.042-.015-.014 0-.07 0-.098a.3.3 0 0 1 .086.056"/></g></g></g></svg>